<?xml version="1.0" encoding="UTF-8"?><svg id="Calque_1" xmlns="http://www.w3.org/2000/svg" viewBox="0 0 820.77 217.55"><defs><style>.cls-1{fill:#010101;}.cls-1,.cls-2{stroke-width:0px;}.cls-2{fill:#1d1d1b;}</style></defs><path class="cls-2" d="M15.05,11.62v61.78H0V11.62h15.05Z"/><path class="cls-2" d="M66.66,29.35c3.43,3.73,5.15,8.84,5.15,15.36v28.69h-14.96v-26.66c0-3.29-.85-5.84-2.55-7.66-1.7-1.82-3.99-2.73-6.86-2.73s-5.16.91-6.86,2.73c-1.7,1.82-2.55,4.37-2.55,7.66v26.66h-15.05V24.29h15.05v6.51c1.52-2.17,3.58-3.89,6.16-5.15,2.58-1.26,5.48-1.89,8.71-1.89,5.75,0,10.34,1.86,13.77,5.59Z"/><path class="cls-2" d="M87.82,71.9c-3.34-1.47-5.98-3.48-7.92-6.03-1.94-2.55-3.02-5.41-3.26-8.58h14.87c.18,1.7.97,3.08,2.38,4.14,1.41,1.06,3.14,1.58,5.19,1.58,1.88,0,3.33-.37,4.36-1.1,1.03-.73,1.54-1.69,1.54-2.86,0-1.41-.73-2.45-2.2-3.12-1.47-.67-3.84-1.42-7.13-2.24-3.52-.82-6.45-1.69-8.8-2.6-2.35-.91-4.37-2.35-6.07-4.31-1.7-1.96-2.55-4.62-2.55-7.96,0-2.82.78-5.38,2.33-7.7,1.55-2.32,3.84-4.15,6.86-5.5,3.02-1.35,6.61-2.02,10.78-2.02,6.16,0,11.01,1.53,14.56,4.58,3.55,3.05,5.59,7.1,6.12,12.14h-13.9c-.23-1.7-.98-3.05-2.24-4.05-1.26-1-2.92-1.5-4.97-1.5-1.76,0-3.11.34-4.05,1.01-.94.67-1.41,1.6-1.41,2.77,0,1.41.75,2.46,2.24,3.17,1.5.7,3.83,1.41,7,2.11,3.64.94,6.6,1.86,8.89,2.77,2.29.91,4.3,2.38,6.03,4.4,1.73,2.02,2.62,4.74,2.68,8.14,0,2.88-.81,5.44-2.42,7.7-1.61,2.26-3.93,4.03-6.95,5.32-3.02,1.29-6.53,1.94-10.52,1.94-4.28,0-8.1-.73-11.44-2.2Z"/><path class="cls-2" d="M171.42,52.45h-34.06c.23,3.05,1.22,5.38,2.95,7,1.73,1.61,3.86,2.42,6.38,2.42,3.75,0,6.36-1.58,7.83-4.75h16.02c-.82,3.23-2.3,6.13-4.44,8.71-2.14,2.58-4.83,4.61-8.05,6.07-3.23,1.47-6.83,2.2-10.82,2.2-4.81,0-9.09-1.03-12.85-3.08-3.76-2.05-6.69-4.99-8.8-8.8-2.11-3.81-3.17-8.27-3.17-13.38s1.04-9.56,3.12-13.38c2.08-3.81,5-6.75,8.76-8.8,3.75-2.05,8.07-3.08,12.94-3.08s8.98,1,12.67,2.99c3.7,2,6.58,4.84,8.67,8.54,2.08,3.7,3.12,8.01,3.12,12.94,0,1.41-.09,2.88-.26,4.4ZM157.34,10.21v10.38l-21.21-8.89V0l21.21,10.21ZM156.29,44.09c0-2.58-.88-4.63-2.64-6.16-1.76-1.53-3.96-2.29-6.6-2.29s-4.65.73-6.38,2.2c-1.73,1.47-2.8,3.55-3.21,6.25h18.83Z"/><path class="cls-2" d="M198.26,26.09c2.64-1.55,5.57-2.33,8.8-2.33v15.93h-4.14c-3.76,0-6.57.81-8.45,2.42-1.88,1.61-2.82,4.44-2.82,8.49v22.79h-15.05V24.29h15.05v8.18c1.76-2.7,3.96-4.83,6.6-6.38Z"/><path class="cls-2" d="M257.31,52.45h-34.06c.23,3.05,1.22,5.38,2.95,7,1.73,1.61,3.86,2.42,6.38,2.42,3.75,0,6.36-1.58,7.83-4.75h16.02c-.82,3.23-2.3,6.13-4.44,8.71-2.14,2.58-4.83,4.61-8.05,6.07-3.23,1.47-6.83,2.2-10.82,2.2-4.81,0-9.09-1.03-12.85-3.08-3.76-2.05-6.69-4.99-8.8-8.8-2.11-3.81-3.17-8.27-3.17-13.38s1.04-9.56,3.12-13.38c2.08-3.81,5-6.75,8.76-8.8,3.75-2.05,8.07-3.08,12.94-3.08s8.98,1,12.67,2.99c3.7,2,6.58,4.84,8.67,8.54,2.08,3.7,3.12,8.01,3.12,12.94,0,1.41-.09,2.88-.26,4.4ZM242.18,44.09c0-2.58-.88-4.63-2.64-6.16-1.76-1.53-3.96-2.29-6.6-2.29s-4.65.73-6.38,2.2c-1.73,1.47-2.8,3.55-3.21,6.25h18.83Z"/><path class="cls-2" d="M305.53,60.63v12.76h-7.66c-5.46,0-9.71-1.33-12.76-4-3.05-2.67-4.58-7.03-4.58-13.07v-19.54h-5.98v-12.5h5.98v-11.97h15.05v11.97h9.86v12.5h-9.86v19.71c0,1.47.35,2.52,1.06,3.17.7.65,1.88.97,3.52.97h5.37Z"/><path class="cls-2" d="M320.27,71.02c-3.84-2.05-6.86-4.99-9.06-8.8-2.2-3.81-3.3-8.27-3.3-13.38s1.11-9.49,3.34-13.33c2.23-3.84,5.28-6.79,9.15-8.84,3.87-2.05,8.21-3.08,13.02-3.08s9.15,1.03,13.02,3.08c3.87,2.05,6.92,5,9.15,8.84,2.23,3.84,3.34,8.29,3.34,13.33s-1.13,9.49-3.39,13.33c-2.26,3.84-5.34,6.79-9.24,8.84-3.9,2.05-8.26,3.08-13.07,3.08s-9.14-1.03-12.98-3.08ZM340.6,57.9c2.02-2.11,3.04-5.13,3.04-9.06s-.98-6.95-2.95-9.06c-1.97-2.11-4.39-3.17-7.26-3.17s-5.37,1.04-7.3,3.12c-1.94,2.08-2.9,5.12-2.9,9.11s.95,6.95,2.86,9.06c1.91,2.11,4.3,3.17,7.17,3.17s5.32-1.06,7.35-3.17Z"/><path class="cls-2" d="M407.66,29.35c3.43,3.73,5.15,8.84,5.15,15.36v28.69h-14.96v-26.66c0-3.29-.85-5.84-2.55-7.66-1.7-1.82-3.99-2.73-6.86-2.73s-5.16.91-6.86,2.73c-1.7,1.82-2.55,4.37-2.55,7.66v26.66h-15.05V24.29h15.05v6.51c1.52-2.17,3.58-3.89,6.16-5.15,2.58-1.26,5.48-1.89,8.71-1.89,5.75,0,10.34,1.86,13.77,5.59Z"/><path class="cls-2" d="M435.81,35.46c1.91-3.81,4.5-6.75,7.79-8.8,3.28-2.05,6.95-3.08,11-3.08,3.23,0,6.17.68,8.84,2.02,2.67,1.35,4.77,3.17,6.29,5.46V8.27h15.05v65.12h-15.05v-7.04c-1.41,2.35-3.42,4.22-6.03,5.63-2.61,1.41-5.65,2.11-9.11,2.11-4.05,0-7.72-1.04-11-3.12-3.29-2.08-5.88-5.04-7.79-8.89-1.91-3.84-2.86-8.29-2.86-13.33s.95-9.47,2.86-13.29ZM466.61,39.95c-2.08-2.17-4.62-3.26-7.61-3.26s-5.53,1.07-7.61,3.21c-2.08,2.14-3.12,5.09-3.12,8.84s1.04,6.73,3.12,8.93c2.08,2.2,4.62,3.3,7.61,3.3s5.53-1.08,7.61-3.26c2.08-2.17,3.12-5.13,3.12-8.89s-1.04-6.72-3.12-8.89Z"/><path class="cls-2" d="M538.73,52.45h-34.06c.23,3.05,1.22,5.38,2.95,7,1.73,1.61,3.86,2.42,6.38,2.42,3.75,0,6.37-1.58,7.83-4.75h16.02c-.82,3.23-2.3,6.13-4.44,8.71-2.14,2.58-4.83,4.61-8.05,6.07-3.23,1.47-6.83,2.2-10.82,2.2-4.81,0-9.09-1.03-12.85-3.08-3.75-2.05-6.69-4.99-8.8-8.8s-3.17-8.27-3.17-13.38,1.04-9.56,3.12-13.38c2.08-3.81,5-6.75,8.76-8.8,3.75-2.05,8.07-3.08,12.94-3.08s8.98,1,12.67,2.99c3.7,2,6.58,4.84,8.67,8.54,2.08,3.7,3.12,8.01,3.12,12.94,0,1.41-.09,2.88-.26,4.4ZM523.59,44.09c0-2.58-.88-4.63-2.64-6.16s-3.96-2.29-6.6-2.29-4.65.73-6.38,2.2c-1.73,1.47-2.8,3.55-3.21,6.25h18.83Z"/><path class="cls-2" d="M552.46,71.9c-3.34-1.47-5.98-3.48-7.92-6.03-1.94-2.55-3.02-5.41-3.26-8.58h14.87c.18,1.7.97,3.08,2.38,4.14,1.41,1.06,3.14,1.58,5.19,1.58,1.88,0,3.33-.37,4.36-1.1,1.03-.73,1.54-1.69,1.54-2.86,0-1.41-.73-2.45-2.2-3.12-1.47-.67-3.84-1.42-7.13-2.24-3.52-.82-6.45-1.69-8.8-2.6-2.35-.91-4.37-2.35-6.07-4.31-1.7-1.96-2.55-4.62-2.55-7.96,0-2.82.78-5.38,2.33-7.7,1.55-2.32,3.84-4.15,6.86-5.5,3.02-1.35,6.61-2.02,10.78-2.02,6.16,0,11.01,1.53,14.56,4.58,3.55,3.05,5.59,7.1,6.12,12.14h-13.9c-.24-1.7-.98-3.05-2.24-4.05-1.26-1-2.92-1.5-4.97-1.5-1.76,0-3.11.34-4.05,1.01-.94.67-1.41,1.6-1.41,2.77,0,1.41.75,2.46,2.24,3.17,1.5.7,3.83,1.41,7,2.11,3.64.94,6.6,1.86,8.89,2.77,2.29.91,4.3,2.38,6.03,4.4,1.73,2.02,2.62,4.74,2.68,8.14,0,2.88-.81,5.44-2.42,7.7-1.61,2.26-3.93,4.03-6.95,5.32-3.02,1.29-6.53,1.94-10.52,1.94-4.28,0-8.1-.73-11.44-2.2Z"/><path class="cls-2" d="M598.57,71.9c-3.34-1.47-5.98-3.48-7.92-6.03-1.94-2.55-3.02-5.41-3.26-8.58h14.87c.18,1.7.97,3.08,2.38,4.14,1.41,1.06,3.14,1.58,5.19,1.58,1.88,0,3.33-.37,4.36-1.1,1.03-.73,1.54-1.69,1.54-2.86,0-1.41-.73-2.45-2.2-3.12-1.47-.67-3.84-1.42-7.13-2.24-3.52-.82-6.45-1.69-8.8-2.6-2.35-.91-4.37-2.35-6.07-4.31-1.7-1.96-2.55-4.62-2.55-7.96,0-2.82.78-5.38,2.33-7.7,1.55-2.32,3.84-4.15,6.86-5.5,3.02-1.35,6.61-2.02,10.78-2.02,6.16,0,11.01,1.53,14.56,4.58,3.55,3.05,5.59,7.1,6.12,12.14h-13.9c-.24-1.7-.98-3.05-2.24-4.05-1.26-1-2.92-1.5-4.97-1.5-1.76,0-3.11.34-4.05,1.01-.94.67-1.41,1.6-1.41,2.77,0,1.41.75,2.46,2.24,3.17,1.5.7,3.83,1.41,7,2.11,3.64.94,6.6,1.86,8.89,2.77,2.29.91,4.3,2.38,6.03,4.4,1.73,2.02,2.62,4.74,2.68,8.14,0,2.88-.81,5.44-2.42,7.7-1.61,2.26-3.93,4.03-6.95,5.32-3.02,1.29-6.53,1.94-10.52,1.94-4.28,0-8.1-.73-11.44-2.2Z"/><path class="cls-2" d="M637.24,16.85c-1.67-1.55-2.51-3.48-2.51-5.76s.84-4.3,2.51-5.85c1.67-1.55,3.83-2.33,6.47-2.33s4.71.78,6.38,2.33c1.67,1.55,2.51,3.51,2.51,5.85s-.84,4.21-2.51,5.76c-1.67,1.55-3.8,2.33-6.38,2.33s-4.8-.78-6.47-2.33ZM651.19,24.29v49.1h-15.05V24.29h15.05Z"/><path class="cls-2" d="M702.81,29.35c3.43,3.73,5.15,8.84,5.15,15.36v28.69h-14.96v-26.66c0-3.29-.85-5.84-2.55-7.66-1.7-1.82-3.99-2.73-6.86-2.73s-5.16.91-6.86,2.73c-1.7,1.82-2.55,4.37-2.55,7.66v26.66h-15.05V24.29h15.05v6.51c1.53-2.17,3.58-3.89,6.16-5.15,2.58-1.26,5.48-1.89,8.71-1.89,5.75,0,10.34,1.86,13.77,5.59Z"/><path class="cls-2" d="M732.19,16.85c-1.67-1.55-2.51-3.48-2.51-5.76s.84-4.3,2.51-5.85c1.67-1.55,3.83-2.33,6.47-2.33s4.71.78,6.38,2.33c1.67,1.55,2.51,3.51,2.51,5.85s-.84,4.21-2.51,5.76c-1.67,1.55-3.8,2.33-6.38,2.33s-4.8-.78-6.47-2.33ZM746.14,24.29v49.1h-15.05V24.29h15.05Z"/><path class="cls-2" d="M754.2,35.46c2.08-3.81,4.99-6.75,8.71-8.8,3.72-2.05,7.99-3.08,12.8-3.08,6.16,0,11.31,1.61,15.44,4.84s6.85,7.77,8.14,13.64h-16.02c-1.35-3.75-3.96-5.63-7.83-5.63-2.76,0-4.96,1.07-6.6,3.21-1.64,2.14-2.46,5.21-2.46,9.2s.82,7.05,2.46,9.2c1.64,2.14,3.84,3.21,6.6,3.21,3.87,0,6.48-1.88,7.83-5.63h16.02c-1.29,5.75-4.02,10.27-8.18,13.55-4.17,3.29-9.3,4.93-15.4,4.93-4.81,0-9.08-1.03-12.8-3.08-3.73-2.05-6.63-4.99-8.71-8.8-2.08-3.81-3.12-8.27-3.12-13.38s1.04-9.56,3.12-13.38Z"/><path class="cls-2" d="M805.41,16.85c-1.67-1.55-2.51-3.48-2.51-5.76s.84-4.3,2.51-5.85c1.67-1.55,3.83-2.33,6.47-2.33s4.71.78,6.38,2.33c1.67,1.55,2.51,3.51,2.51,5.85s-.84,4.21-2.51,5.76c-1.67,1.55-3.8,2.33-6.38,2.33s-4.8-.78-6.47-2.33ZM819.36,24.29v49.1h-15.05V24.29h15.05Z"/><path class="cls-1" d="M474.69,130.51c-1.18.83-64.16,46.36-64.54,46.65l-.48.37-32.17-23.26c-17.69-12.79-32.36-23.41-32.61-23.6l-.46-.35v40.05l32.61,23.58,32.61,23.59.72-.52c.39-.29,15.07-10.9,32.63-23.6l31.93-23.09v-40.01l-.24.17Z"/></svg>